<svg width="107" height="95" viewBox="0 0 107 95" fill="none" xmlns="http://www.w3.org/2000/svg">
<path d="M98.7657 31.5408C98.7657 38.2923 93.2926 43.7654 86.5412 43.7654C79.7898 43.7654 74.3167 38.2923 74.3167 31.5408C74.3167 24.7894 79.7898 19.3163 86.5412 19.3163C93.2926 19.3163 98.7657 24.7894 98.7657 31.5408ZM76.0281 31.5408C76.0281 37.3471 80.735 42.0539 86.5412 42.0539C92.3474 42.0539 97.0543 37.3471 97.0543 31.5408C97.0543 25.7346 92.3474 21.0277 86.5412 21.0277C80.735 21.0277 76.0281 25.7346 76.0281 31.5408Z" fill="#191A19"/>
<path fill-rule="evenodd" clip-rule="evenodd" d="M105.468 33.0323C106.314 22.5567 98.5078 13.3785 88.0322 12.5323C77.5566 11.686 68.3784 19.4922 67.5322 29.9677C70.4698 36.8205 72.3469 40.7491 79.7279 37.9027C83.7201 37.1199 85.9639 36.9889 90.0038 38.7329C93.3444 40.143 94.5539 39.3106 96.1987 36.9439C98.2331 32.2774 101.383 32.4662 105.468 33.0323Z" fill="#5AB286"/>
<path d="M84.9677 50.4677C95.4433 51.314 104.621 43.5079 105.468 33.0323C101.383 32.4662 98.2331 32.2774 96.1987 36.9439C94.5539 39.3106 93.3444 40.143 90.0038 38.7329C85.9639 36.9889 83.7201 37.1199 79.7279 37.9027C72.3469 40.7491 70.4698 36.8205 67.5322 29.9677C66.686 40.4433 74.4921 49.6215 84.9677 50.4677Z" fill="#124C6C"/>
<path fill-rule="evenodd" clip-rule="evenodd" d="M86.4999 44.7433C79.1859 44.7433 73.2567 38.8141 73.2567 31.5001C73.2567 24.186 79.1859 18.2568 86.4999 18.2568C93.814 18.2568 99.7432 24.186 99.7432 31.5001C99.7432 38.8141 93.814 44.7433 86.4999 44.7433ZM86.4999 40.7704C90.9084 40.7704 94.5982 37.6931 95.5384 33.5693C96.2619 30.5882 97.1772 27.9909 98.5016 27.3616C97.2396 27.9539 96.5748 28.3836 95.5616 29.5356C94.6605 25.3593 90.9457 22.2298 86.4999 22.2298C81.3801 22.2298 77.2296 26.3803 77.2296 31.5001C77.2296 36.6199 81.3801 40.7704 86.4999 40.7704Z" fill="#191A19"/>
<ellipse cx="0.611227" cy="0.651976" rx="0.611227" ry="0.651976" transform="matrix(-1 0 0 1 86.4595 23.1466)" fill="#191A19"/>
<path d="M90.7949 22.6429C88.8834 21.5264 91.3449 23.2971 89.46 25.3257C84.6081 29.7433 78.6897 31.9969 83.1391 34.2144L81.3819 35.2318L81.9353 36.1646C83.6325 35.0873 89.4826 32.989 91.0862 26.6184C91.0862 26.6184 92.2453 31.1439 83.9759 35.8247C86.781 37.2239 89.0602 37.6592 92.0498 34.2142C95.0388 30.7693 92.7064 23.7593 90.7949 22.6429Z" fill="#141212"/>
<path d="M90.7949 22.6429C88.8834 21.5264 91.3449 23.2971 89.46 25.3257C84.6081 29.7433 78.6897 31.9969 83.1391 34.2144L81.3819 35.2318L81.9353 36.1646C83.6325 35.0873 89.4826 32.989 91.0862 26.6184C91.0862 26.6184 92.2453 31.1439 83.9759 35.8247C86.781 37.2239 89.0602 37.6592 92.0498 34.2142C95.0388 30.7693 92.7064 23.7593 90.7949 22.6429Z" fill="#191A19"/>
<path d="M7.872 49C7.44533 49 7.06133 48.8507 6.72 48.552C6.42133 48.2107 6.272 47.8267 6.272 47.4V16.36C6.272 15.9333 6.4 15.5707 6.656 15.272C6.95467 14.9307 7.296 14.76 7.68 14.76H25.6C26.0693 14.76 26.4533 14.9093 26.752 15.208C27.0507 15.5067 27.2 15.8907 27.2 16.36C27.2 16.7867 27.0507 17.1707 26.752 17.512C26.4533 17.8107 26.0693 17.96 25.6 17.96H9.472V29.096H22.848C23.3173 29.096 23.7013 29.2453 24 29.544C24.2987 29.8427 24.448 30.2267 24.448 30.696C24.448 31.1227 24.2987 31.5067 24 31.848C23.7013 32.1467 23.3173 32.296 22.848 32.296H9.472V45.8H25.728C26.1973 45.8 26.5813 45.9493 26.88 46.248C27.1787 46.5467 27.328 46.9307 27.328 47.4C27.328 47.8267 27.1787 48.2107 26.88 48.552C26.5813 48.8507 26.1973 49 25.728 49H7.872ZM60.4995 19.048C58.4088 17.9387 55.7635 17.384 52.5635 17.384C50.0035 17.384 47.6355 18.0027 45.4595 19.24C43.3262 20.4773 41.5982 22.2053 40.2755 24.424C38.9528 26.6 38.2915 29.16 38.2915 32.104C38.2915 34.792 38.8675 37.224 40.0195 39.4C41.1715 41.5333 42.8355 43.24 45.0115 44.52C47.2302 45.7573 49.8755 46.376 52.9475 46.376C54.4835 46.376 55.9128 46.2267 57.2355 45.928C58.6008 45.6293 59.8168 45.2027 60.8835 44.648C61.0968 44.52 61.3315 44.456 61.5875 44.456C62.0568 44.456 62.4408 44.6053 62.7395 44.904C63.0382 45.2027 63.1875 45.5867 63.1875 46.056C63.1875 46.7387 62.8888 47.208 62.2915 47.464C61.0115 48.1467 59.5822 48.6587 58.0035 49C56.4248 49.384 54.7395 49.576 52.9475 49.576C49.1928 49.576 45.9715 48.808 43.2835 47.272C40.6382 45.736 38.6115 43.6453 37.2035 41C35.7955 38.3547 35.0915 35.3893 35.0915 32.104C35.0915 28.52 35.9022 25.384 37.5235 22.696C39.1448 20.008 41.2782 17.9173 43.9235 16.424C46.5688 14.9307 49.4488 14.184 52.5635 14.184C56.4035 14.184 59.5608 14.8667 62.0355 16.232C62.5902 16.5733 62.8675 17.0427 62.8675 17.64C62.8675 18.024 62.7182 18.3867 62.4195 18.728C62.1208 19.0693 61.7368 19.24 61.2675 19.24C61.0115 19.24 60.7555 19.176 60.4995 19.048Z" fill="#5AB286"/>
<path d="M12 71.4C10.72 71.4 9.57333 71.1867 8.56 70.76C7.54667 70.3067 6.77333 69.76 6.24 69.12C6.08 68.9067 6 68.7067 6 68.52C6 68.2533 6.09333 68.04 6.28 67.88C6.49333 67.6933 6.72 67.6 6.96 67.6C7.2 67.6 7.42667 67.7067 7.64 67.92C8.09333 68.4267 8.72 68.8667 9.52 69.24C10.3467 69.6133 11.24 69.8 12.2 69.8C13.3733 69.8 14.3067 69.5067 15 68.92C15.6933 68.3333 16.04 67.6 16.04 66.72C16.04 66.0267 15.8267 65.48 15.4 65.08C14.9733 64.6533 14.4533 64.3333 13.84 64.12C13.2267 63.88 12.6133 63.6933 12 63.56C11.0933 63.3467 10.2 63.0933 9.32 62.8C8.46667 62.48 7.76 62.04 7.2 61.48C6.64 60.8933 6.36 60.12 6.36 59.16C6.36 57.8267 6.88 56.7733 7.92 56C8.96 55.2 10.3733 54.8 12.16 54.8C13.2533 54.8 14.16 54.9467 14.88 55.24C15.6267 55.5067 16.2533 55.8667 16.76 56.32C16.9733 56.5067 17.08 56.72 17.08 56.96C17.08 57.1467 17 57.3467 16.84 57.56C16.68 57.7467 16.4933 57.84 16.28 57.84C16.0667 57.84 15.84 57.7467 15.6 57.56C15.3067 57.32 14.8667 57.0667 14.28 56.8C13.6933 56.5333 12.9333 56.4 12 56.4C10.8267 56.4 9.88 56.6267 9.16 57.08C8.46667 57.5333 8.12 58.2133 8.12 59.12C8.12 59.7333 8.30667 60.2133 8.68 60.56C9.05333 60.88 9.56 61.1467 10.2 61.36C10.8667 61.5467 11.5867 61.7467 12.36 61.96C13.08 62.1467 13.8667 62.4 14.72 62.72C15.5733 63.0133 16.2933 63.48 16.88 64.12C17.4933 64.7333 17.8 65.6133 17.8 66.76C17.8 68.2267 17.24 69.3733 16.12 70.2C15.0267 71 13.6533 71.4 12 71.4ZM28.6644 71.4C27.571 71.4 26.7177 71.08 26.1044 70.44C25.491 69.7733 25.1844 68.8667 25.1844 67.72V61.8C25.1844 61.5333 25.051 61.4 24.7844 61.4H23.7844C23.571 61.4 23.3844 61.32 23.2244 61.16C23.0644 61 22.9844 60.8133 22.9844 60.6C22.9844 60.3867 23.0644 60.2 23.2244 60.04C23.3844 59.88 23.571 59.8 23.7844 59.8H24.7844C25.051 59.8 25.1844 59.6667 25.1844 59.4V55.68C25.1844 55.3867 25.2777 55.1733 25.4644 55.04C25.651 54.88 25.851 54.8 26.0644 54.8C26.3044 54.8 26.5177 54.88 26.7044 55.04C26.891 55.1733 26.9844 55.3867 26.9844 55.68V59.4C26.9844 59.6667 27.1177 59.8 27.3844 59.8H30.1844C30.3977 59.8 30.5844 59.88 30.7444 60.04C30.9044 60.2 30.9844 60.3867 30.9844 60.6C30.9844 60.8133 30.9044 61 30.7444 61.16C30.5844 61.32 30.3977 61.4 30.1844 61.4H27.3844C27.1177 61.4 26.9844 61.5333 26.9844 61.8V67.6C26.9844 68.9867 27.6244 69.68 28.9044 69.68C29.2244 69.68 29.4777 69.64 29.6644 69.56C29.8777 69.48 30.051 69.44 30.1844 69.44C30.4244 69.44 30.611 69.5333 30.7444 69.72C30.9044 69.9067 30.9844 70.1067 30.9844 70.32C30.9844 70.7467 30.7844 71.0133 30.3844 71.12C30.1177 71.2267 29.8244 71.2933 29.5044 71.32C29.211 71.3733 28.931 71.4 28.6644 71.4ZM39.0031 65.36V70.48C39.0031 70.7467 38.9231 70.96 38.7631 71.12C38.6031 71.3067 38.3898 71.4 38.1231 71.4C37.8565 71.4 37.6298 71.3067 37.4431 71.12C37.2831 70.96 37.2031 70.7467 37.2031 70.48V60.48C37.2031 60.1867 37.2965 59.9733 37.4831 59.84C37.6698 59.68 37.8831 59.6 38.1231 59.6C38.3365 59.6 38.5365 59.68 38.7231 59.84C38.9098 59.9733 39.0031 60.1867 39.0031 60.48V61.44C39.3231 60.7733 39.8565 60.2667 40.6031 59.92C41.3498 59.5733 42.0565 59.4 42.7231 59.4C43.1231 59.4 43.5231 59.4667 43.9231 59.6C44.1898 59.68 44.3765 59.8267 44.4831 60.04C44.6165 60.2533 44.6431 60.4933 44.5631 60.76C44.3765 61.2933 44.0165 61.5067 43.4831 61.4C43.0031 61.2667 42.6031 61.2 42.2831 61.2C41.2431 61.2 40.4298 61.6 39.8431 62.4C39.2831 63.1733 39.0031 64.16 39.0031 65.36ZM55.5819 71.4C53.7152 71.4 52.2219 70.8533 51.1019 69.76C49.9819 68.64 49.4219 67.1067 49.4219 65.16C49.4219 64.0933 49.6619 63.1333 50.1419 62.28C50.6219 61.4 51.2885 60.7067 52.1419 60.2C53.0219 59.6667 54.0485 59.4 55.2219 59.4C56.4485 59.4 57.4619 59.6667 58.2619 60.2C59.0619 60.7067 59.6485 61.3467 60.0219 62.12C60.4219 62.8667 60.6219 63.6133 60.6219 64.36C60.6219 64.8133 60.5152 65.1867 60.3019 65.48C60.1152 65.7733 59.8352 65.92 59.4619 65.92H51.7819C51.6219 65.92 51.5019 65.9333 51.4219 65.96C51.3685 65.9867 51.3419 66.08 51.3419 66.24C51.3419 66.6933 51.4885 67.1867 51.7819 67.72C52.0752 68.2533 52.4885 68.72 53.0219 69.12C53.5819 69.4933 54.2219 69.7067 54.9419 69.76C55.7152 69.8133 56.4752 69.7333 57.2219 69.52C57.9685 69.3067 58.6352 68.9733 59.2219 68.52C59.3552 68.4133 59.5019 68.36 59.6619 68.36C59.8485 68.36 60.0219 68.44 60.1819 68.6C60.3685 68.76 60.4619 68.96 60.4619 69.2C60.4619 69.44 60.3419 69.68 60.1019 69.92C59.4619 70.4267 58.7419 70.8 57.9419 71.04C57.1419 71.28 56.3552 71.4 55.5819 71.4ZM58.1019 64.52C58.3152 64.52 58.4752 64.44 58.5819 64.28C58.6885 64.0933 58.7152 63.8667 58.6619 63.6C58.5819 62.9067 58.2219 62.2933 57.5819 61.76C56.9419 61.2 56.1552 60.92 55.2219 60.92C54.5285 60.92 53.8885 61.0933 53.3019 61.44C52.7419 61.76 52.2885 62.1733 51.9419 62.68C51.5952 63.1867 51.4219 63.72 51.4219 64.28C51.4219 64.4133 51.5419 64.48 51.7819 64.48L58.1019 64.52ZM72.6863 71.4C71.0329 71.4 69.6729 70.84 68.6063 69.72C67.5396 68.5733 67.0063 67.1067 67.0063 65.32C67.0063 63.5867 67.5396 62.1733 68.6063 61.08C69.6729 59.96 71.0329 59.4 72.6863 59.4C74.3929 59.4 75.7663 60 76.8063 61.2V60.48C76.8063 60.1867 76.8996 59.9733 77.0863 59.84C77.2729 59.68 77.4729 59.6 77.6863 59.6C77.9263 59.6 78.1396 59.68 78.3263 59.84C78.5129 59.9733 78.6063 60.1867 78.6063 60.48V70.48C78.6063 70.7467 78.5129 70.96 78.3263 71.12C78.1663 71.3067 77.9529 71.4 77.6863 71.4C77.4196 71.4 77.2063 71.3067 77.0463 71.12C76.8863 70.96 76.8063 70.7467 76.8063 70.48V69.52C76.3263 70.1067 75.7263 70.5733 75.0063 70.92C74.3129 71.24 73.5396 71.4 72.6863 71.4ZM72.6863 69.76C73.9396 69.76 74.9396 69.3867 75.6863 68.64C76.4329 67.8933 76.8063 66.7867 76.8063 65.32C76.8063 63.9067 76.4329 62.84 75.6863 62.12C74.9396 61.4 73.9396 61.04 72.6863 61.04C71.5396 61.04 70.6063 61.4533 69.8863 62.28C69.1929 63.1067 68.8463 64.12 68.8463 65.32C68.8463 66.5733 69.1929 67.6267 69.8863 68.48C70.6063 69.3333 71.5396 69.76 72.6863 69.76ZM86.5403 71.4C86.2736 71.4 86.047 71.3067 85.8603 71.12C85.7003 70.96 85.6203 70.7467 85.6203 70.48V60.48C85.6203 60.1867 85.7136 59.9733 85.9003 59.84C86.087 59.68 86.3003 59.6 86.5403 59.6C86.7536 59.6 86.9536 59.68 87.1403 59.84C87.327 59.9733 87.4203 60.1867 87.4203 60.48V61.32C87.8736 60.68 88.447 60.2 89.1403 59.88C89.8603 59.56 90.5936 59.4 91.3403 59.4C92.2203 59.4 93.007 59.6133 93.7003 60.04C94.4203 60.4667 94.967 61.12 95.3403 62C95.847 60.9867 96.5136 60.3067 97.3403 59.96C98.1936 59.5867 98.9936 59.4 99.7403 59.4C100.994 59.4 102.047 59.84 102.9 60.72C103.78 61.6 104.22 62.9867 104.22 64.88V70.48C104.22 70.7467 104.14 70.96 103.98 71.12C103.82 71.3067 103.607 71.4 103.34 71.4C103.074 71.4 102.847 71.3067 102.66 71.12C102.5 70.96 102.42 70.7467 102.42 70.48V65C102.42 63.64 102.154 62.6533 101.62 62.04C101.114 61.4267 100.407 61.12 99.5003 61.12C98.5936 61.12 97.8736 61.3467 97.3403 61.8C96.807 62.2267 96.4203 62.76 96.1803 63.4C95.9403 64.04 95.8203 64.6933 95.8203 65.36V70.48C95.8203 70.7467 95.7403 70.96 95.5803 71.12C95.4203 71.3067 95.207 71.4 94.9403 71.4C94.6736 71.4 94.447 71.3067 94.2603 71.12C94.1003 70.96 94.0203 70.7467 94.0203 70.48V65.04C94.0203 63.68 93.7536 62.6933 93.2203 62.08C92.7136 61.44 92.007 61.12 91.1003 61.12C90.1936 61.12 89.4736 61.3467 88.9403 61.8C88.407 62.2267 88.0203 62.7733 87.7803 63.44C87.5403 64.08 87.4203 64.72 87.4203 65.36V70.48C87.4203 70.7467 87.3403 70.96 87.1803 71.12C87.0203 71.3067 86.807 71.4 86.5403 71.4Z" fill="#124C6C"/>
</svg>
